<svg width="25" height="24" viewBox="0 0 25 24" fill="none" xmlns="http://www.w3.org/2000/svg">
<path d="M19.3906 5.10938C18.0275 3.74478 16.2902 2.81515 14.3986 2.43811C12.507 2.06106 10.5461 2.25354 8.76391 2.99119C6.98172 3.72884 5.45837 4.97851 4.38657 6.58212C3.31476 8.18572 2.74268 10.0712 2.74268 12C2.74268 13.9288 3.31476 15.8143 4.38657 17.4179C5.45837 19.0215 6.98172 20.2712 8.76391 21.0088C10.5461 21.7465 12.507 21.9389 14.3986 21.5619C16.2902 21.1849 18.0275 20.2552 19.3906 18.8906C20.296 17.986 21.0143 16.9118 21.5043 15.7295C21.9943 14.5472 22.2466 13.2799 22.2466 12C22.2466 10.7201 21.9943 9.45283 21.5043 8.27049C21.0143 7.08816 20.296 6.01399 19.3906 5.10938ZM15.875 13.875C15.875 14.0739 15.796 14.2647 15.6553 14.4053C15.5147 14.546 15.3239 14.625 15.125 14.625C14.9261 14.625 14.7353 14.546 14.5947 14.4053C14.454 14.2647 14.375 14.0739 14.375 13.875V11.1844L10.4094 15.1594C10.2644 15.2954 10.0738 15.3723 9.87501 15.375C9.67585 15.3742 9.4846 15.297 9.34063 15.1594C9.1998 15.0172 9.12079 14.8251 9.12079 14.625C9.12079 14.4249 9.1998 14.2328 9.34063 14.0906L13.3156 10.125H10.625C10.4261 10.125 10.2353 10.046 10.0947 9.90533C9.95402 9.76468 9.87501 9.57392 9.87501 9.375C9.87501 9.17609 9.95402 8.98533 10.0947 8.84467C10.2353 8.70402 10.4261 8.625 10.625 8.625H15.125C15.2216 8.62475 15.3172 8.64388 15.4063 8.68125C15.5914 8.75615 15.7396 8.90098 15.8188 9.08438C15.8555 9.17689 15.8746 9.27547 15.875 9.375V13.875Z" fill="white"/>
</svg>
