<svg width="131" height="57" fill="none" xmlns="http://www.w3.org/2000/svg"><path d="M33.785 20.89c-.57-.84-.415.216-.424.905.57.366.21-.512.424-.906Zm-.839.23c-.055-.317.381-.112.296-.439-.202-1.104-1.38.553-.296.44Z" fill="#E7211A"/><path d="M40.711 20.984c.65-3.296-1.977-2.808-4.104-2.808-.091-.625-.991-.174-.479.345-.592.473-.009-.644-.613-.592-.626 1.355-1.541.574-1.779 2.127.479 1.19.287.134.967-.87.595.309 1.352-.607 1.285.25.546.977-.699-.195-1.13.315.031.754 1.646.421.312 1.126 1.096.586-.809.366-1.129.488.498.876-.555.842-1.077 1.15-.03-.833.433-.68-.494-1.223-.315.836-.214 1.904-.223 2.99-.003.39.204.946.287 1.2.271-.309.091.253.091.253.629-.147.244.515.32.683.092.201.147.284.507.83.22.345.208.14.269.192.055.043.363.05.268.278 0 0 .196-.085.107.082.284.208.546.34.546.34.061.03.327.127.784.237.382.092.959.311 1.386-.024.345-.272.406-.72.418-.894.992-.14 1.345-1.08 1.931-1.569 1.349-1.687.254-.753-.113-1.486.61.232.919-1.63 1.032-.22.354.833 1.254-2.785.628-3.194l.003-.006ZM57.262 6.45c-.253-1.087 1.059-1.636.922-2.481-.104.314-.476.247-.632.35.058-.192-.229-.243-.299-.079.455.403-.519.086-.443.934-.238.04-.695.476-.265.55.027-.068-.058-.156.085-.123.19.043-.235.092.077.067.033.248-.159.156-.32.241-.107.385-.352.254-.468.083-.024-.037-.088-.03-.106.006-.095.201-.312.265-.214.25-.372.052-.088.186-.168.244-.204.559-.18 1.318-1.025 1.654-.11.613-.37.91-.39 1.456 0 0 .576-.058-.089.097-.879.034-.382-.207-1.092.336.057.442-.083 1.114-.47 1.431.158.47.018.708-.217 1.056-.229.247-.424.04-.345.613-.818.4-.583 1.059.144 1.327.86-.238.707.852.707-.341.455.152.031 1.315.739.409.22-.138.311-.367.348-.62.131.055.336-.204.165-.174.06-.882.463-1.492.753-2.24.608-.012.482-.967.916-1.22-.052-.168.06-1.523.396-1.431-.079-.415.208-.903.602-1.04.265-.413-.504-.263-.043-.51.244.332.494-.208.345-.55.183 0 .662-.21.393-.295h-.006ZM19.65 16.843c-.277.048-.475-.16-.588-.34-.43.08-.333-.289-.348-.52-.122-.035-.177-.09-.14-.19-.144.037-.235-.12-.293-.198-.235-.037-.452.006-.519-.22-.247-.012.107-.452-.287-.385-.168.26-.232-.064-.448-.15.186-.435-.007-.356-.428-.39.07-.354-.213-.457-.588-.463.534-.422-.302-.266-.187-.647-.146-.098-.537.04-.445-.208-.28.015-.339-.406-.668-.342.048.138-.25-.009-.309-.012.07-.119-.115-.201-.21-.26.091-.216-.229-.063-.3-.072.092-.242-.255-.522-.036-.635-.015-.348-.47-.36-.82-.345-.052-.186-.306-.195-.45-.15-.225-.143.086-.204.098-.305-.17-.079-.04-.265-.128-.387-.125.012-.195-.034-.222-.137-.342-.083-.144.158-.287.256.155.052-.43.1-.336-.034-.189-.015.028.058-.159.058.092.107-.04.818.272.516 0 0 .192.03.159-.052.305-.183.11.199.128.318.506-.236.348.051.519.21-.037.308-.199.15-.147-.064l-.22-.073c-.015 0 .028.128-.085.06-.04.187.14.41-.018.446-.147.4.62-.052.268.44.39.134-.14.592.336.714-.113.354.616-.327.326-.364.028-.75.849.873-.262.553.088.058-.088.21.22.198-.129-.091.079-.055.079-.055.03.098.052.23.217.195-.186.18.036.184.052.443-.33.107-.07.53.28.458.061-.177.269-.873-.177-.891.101-.061.015-.293.177-.302-.055-.147-.1-.348.165-.315-.159.327.433.278.293.205.238-.073.21.415-.006.189.012.247-.525.699.11.638-.131.293-.812.515-.354.735.412.278.29.671.955.604-.565.592.638.11.47.968.512-.05 1.01.228.876.668-.11.024-.193.08-.165.18-.101.027-.196.073-.159.186-.003-.018.616.116.69-.037l.15.003c-.187.54.47.366.802.604.015.14.015.297.11.394.088.107.408.083.332-.125.18-.012.116-.183.241-.18.025-.168.25-.061.238-.177.125.027.284-.052.22.134.1.05.333.254.378.083a.196.196 0 0 0 .238-.12c.058-.002.192.037.159-.057.357-.186.085-.275.104-.437.213-.088.262-.646.128-.811v-.006Zm9.918-4.611c-.68-.091-.446.607-1.148-.113.052-.174-.22-.24-.363-.268-.137-.446.15-.617-.012-.998.336.03-.552-.174-.595-.223.088-.314.565-.116.497-.54-.24-.067-.427.26-.537-.027.235-.012.214-.485.034-.498-.067-.299-.61.446-.372-.082.262.018-.019-.882-.406-.833-.21-.323-.266-.745-.4-.961-.162-.314-.22-.128-.381.046-.14.015-.263-.055-.312.112-.277 0-.106-.537.208-.408.217 0 .293.085.287-.196-.614-.232.17-.375-.269-.583-.186-.387-.35-.006-.613-.024.104-.384-.287-.37.052-.754-.308-.097.293-.259.046-.381.332 0-.244-.03-.168-.122-.36-.064.055.021-.153.052-.815-.028-.009-.916-.464-1.15-.033-.45-.76-.367-.945-.739-.467.299-.12.317-.04.632-.308.762.558.39.387-.046.79.174-.204.586-.515.857.549.104.335.473.25.894.348.135.189.495.42.583.727.421.523.888.373 1.337-.006.174.29.283.516.335-.08.36-.253 1.142.119 1.206-.08 0 .064.021.1 0-.088.283-.18.4.199.573.034.156-.1.195-.174.308.122.037.278.065.214.199.125.305.518.277.497.589-.726.244-.21.549.348.582-.159.052.07.065.07.065-.388.186-.626.692-.201.811.1.217.052.656.177.827-.583.382 1.382 1.141 1.766.955.144-.22.534-.573.617-.104 0 0 .53-.064.161-.115-.174-.403.174-.257.476-.29.333-.083-.344-.037.08-.064.055-.058.354-.242.015-.25-.668-1.127.397-.556.156-1.19l.003-.004Zm12.272-.977c-.13-.25-.323.187-.537.11-.277-.354-.308-.94-.463-1.16.921-.689.436-.573.155-1.253.308.055.849.012.708-.287-.174-.021-.522.082-.448-.144.735-.173.1-.607.216-1.058.153-.605-.052-1.492.138-2.194-.464-.376.512-.077.054-.821-.155-.073-.53.104-.448-.144.058-.46.985-.872.601-.988-1.01-.55.48-.781.027-1.633-.064-.564-1.006-1.165-.76-.097-.219-.052-.378.375-.182.323-.14.037.177.01.375 0-.229.195-.644.012-.757.156-.018.021.366.033-.08.06-.075.101.468.318.129.443.03.275-.415.36-.348.68-.116.44.379 1.017.058 1.453-.57.647-.631.32-.226 1.117-.555.177-.21.726-.741.912-.07.263.412-.006.284.33-.54.098-.028.42-.272.68-.375-.042.073.812.089 1.013-1.425.074.222.592-.214.934-1.08-.415-.19 1.245-1.09 1.462.053.238.306.436.257.702.271.067.271.439.513.411-.028.257.381.202.427.394.107-.034.24-.113.546-.098.378-.433.064.306.442.266-.091-.763 1.123.162.94-.4-.357-1.043 1.425-.683.608-1.168Zm-.31-9.58a.84.84 0 0 1-.163.164c.019-.156-.045-.275.162-.165Z" fill="#E7211A"/><path d="M39.271 24.816c-.131.107.165-.021 0 0ZM24.225 46.642c-.543.409-.073-.424-.516-.339-.085.48-.51.019-.68-.186-.565.22.924 1.535 1.196.522v.003Zm-.012-1.217c-1.02.43-.714.433.137.384.168-.052.15-.073.085-.082.07-.229-.21-.134-.22-.302h-.002Zm1.074-.174c-1.462.5.491 1.956.287.47-.779 0 .36-.479-.287-.47Zm1.754.091c-.158-.052-.116-.195-.293-.174-.659.253.21.665.293.174Zm2.829-.085c.339.015.64-.125.71-.241.092.04.16.042.141-.019.39.058-.119-.488-.36-.4-.22.037-.137.175.006.287a2.29 2.29 0 0 0-.479.07c-.11.019-.15.297-.018.303Zm10.628-.202c-.37.165-.516.32-.94.409.17-1.053-1.05 1.556.601.183-.824 1.712 1.373-.769.339-.592Zm-13.225.22c.226.842.989-1.114.29-1.132-.406.31-.15.29.043.69-.116.082-.617.408-.333.442Zm2.027-.735c.368-.025.72-.083.329-.446-.113.125-.363.195-.33.445Zm-.498-.715c-.186.006-.07.305-.323.217-.092.44.836.326.323-.217Zm.937-.408c-.067.006-.08-.01-.073-.073-.385.058.11.457.073.073Zm2.011-.425c-.531.244-.843.562-.263.592.708.205.601-.357.263-.592Zm.442.251c.223-.253.568-.415.027-.537-.213.006-.268.613-.027.537Zm-1.617.402c.18.077.82-.656.14-.567-.17-.013-.583.381-.14.567Zm1.375-1.638c-.445.424 1.026.17.077-.076h-.088c.024 0 .097.018.012.079v-.003Zm1.405-.537c-.208.033-.171.274.064.232-.05-.165.229-.193-.064-.232Zm-1.169.403c.15-.15.955-.287.57-.66-.292.279-1.086.382-.57.66Zm1.663-1.062c.027-.024.165.013 0 0Z" fill="#fff"/><path d="M33.773 40.805c-.379.119.42.271.146.088-.073-.046-.082-.07-.07-.082-.021 0-.046-.003-.08-.006h.004Zm-.663-.577c-.268.138-.506.599-.192.77.08-.367 1.29-.547.192-.77Zm.718-.561c-.199.021-.095.131-.162.296.183.067.61-.25.162-.296Zm-1.468 10.53s.003.006.006.006c.165-.012.421-.058-.006-.006Zm7.628-16.578c.165-.23-.085-.443-.085-.528-.68.247-.089.772.085.528Z" fill="#fff"/><path d="M40.312 32.6c-.467.03-.046.006-.089.073-.75 1.19 1.862.36.089-.073Zm-12.535-1.273c-.376.186-.193.632-.046.912.32.022.217-.69.046-.912Zm12.593.128c-.147.013-.083.23-.101.37.183.058.781-.397.1-.37Zm-13.93-2.359c-.046-.048-.17.336-.177.553-.067-.159-.274-.3-.442-.434-.32.217.076.629.256.855a.675.675 0 0 0 .125-.116c.14.195.504.354.565.146-.095-.198.085-.25 0-.457.128-.205-.07-.629-.324-.547h-.003Zm-1.507-.204c-.388.464.83.238.381-.137-.107.098-.354-.043-.381.137Zm21.433.281c.195-.348.567-.388.198-.827-.116.091-.705.872-.198.827Zm-22.712-2.862c-.357.235-.064.94.217.842.14-.29.207-.607.043-.82.027-.007.051-.01.082-.016l.073-.021c-.055.287.244.415.36.583.385 1.583.986-.614.006-.153.162-.57-.024-.43-.341-.775-.269-.271.454-1.196-.516-1.785-.635.232-.244.705-.577.732-.427-.448-.665.132-.085.226.53.32.42 1.032.747 1.19l-.009-.003Z" fill="#fff"/><path d="M50.204 52.958a74.67 74.67 0 0 0-1.184-1.938c-.357-.576-3.411-4.342-3.262-4.55.046-.252-.122-.237-.302-.21a.293.293 0 0 1-.338-.296c.042-1.172-1.215 0-1.178-1.04 1.266.302-.351-.553-.583-1.273a.305.305 0 0 0-.238-.201c-.29-.058-.253-.427-.525-.559a.254.254 0 0 1-.11-.094c-.882-1.474-.71-.134-1.217-1.123a.317.317 0 0 1-.025-.204c.092-.47-.195-.562-.476-.641a.29.29 0 0 1-.207-.226c-.137-.671-.983-.87-.284-1.367.607.085 1.184-.894.925-1.315-.113-.183-.022-.43.192-.455.183-.021.342-.085.363-.29.546-.427.958-1.58.882-2.245.479-.821.934.762.735-.452a.298.298 0 0 1 .058-.232c.284-.36.629-.592.824-1.065.278-.104-.427-.073-.278-.473.217-.265.223-.372.318-.33.174.074.372-.012.418-.195.36-1.498-1.062-.009-.18-1.708.088.006.094-.046.122-.077.088.018.128 0 .189 0a.815.815 0 0 1 .085-.009c.565-.131-.622-1.507.32-1.663-.204 1.95.852 2.13.602.412a.362.362 0 0 0-.052-.134c-.488-.745-.061-.662-.076-1.773 0-.116.058-.226.161-.278.342-.162.641.23.7-.293.5-.043.225.21.286.241.1.04.433.058.534.03.18-.051.067-.07-.012-.075h.095c-.257-.675 1.345-1.428.299-1.358-1.313.21-.669.958-1.041.78-.409-.182-1.257.52-1.648.288-.177-.104-.4-.03-.44.17-.081.43-.097.986-.655 1.005-.342.71.192-.785-.113-.77-.232-.872-.3.113-.342.837-.012.189.162.31.351.277.064-.012.107.061.15.345-1.819-.271-.098 2.09-1.727 1.779a.307.307 0 0 0-.303.122c-.152.21-.33.314-.497.421-.28.18-.085.62.238.531.482-.128.915-.265 1.022.171a.3.3 0 0 1-.204.348c-1.016.296-.989-.449-1.358 1.062-.324 1.364.452-.446.754.113-.055.903-.177.033-.498.543a.309.309 0 0 1-.406.1c-.732-.375-1.995 1.303-2.502.254-.592-.07.107.567-.256.592-.366.348-.989.42-1.388.71-.293.214.024.669.335.486.849-.504 1.929-1.865 1.764-.168-.342.55-.543-.491-.925.028.135.04.129.158.16.256a.325.325 0 0 1-.086.326c-.428.446.424 1.126.909.733.192-.156.482-.052.491.198.012.293-.052.525-.271.381-.034-.015-.061-.024-.083-.036-.107.467.604 1.095-.433 1.16-.278-.114-.195-.11-.067-.086.418-.482.573-.4.229-.678a.298.298 0 0 1-.067-.387c.225-.366.332-.336-.403-.241-.016.381-.382.168-.412.589-.1.073-.424-.308-.382.058-.497-.083-.274-.44.04-.559a.3.3 0 0 0 .205-.284c-.01-.549.067-1.61-.031-1.199a.3.3 0 0 1-.278.23c-1.272.057.602.54-.405.567-.162.42-.995.314-1.227-.272a.312.312 0 0 1 .04-.287c.366-.534-1.09-.058-.486.39-1.12.468.452-1.262-.543-1.195a.291.291 0 0 1-.308-.342c.046-.244.055-.552-.168-.824a.291.291 0 0 0-.33-.08c-.164.065-.27.105-.188-.231 0 0 .118-.177-.168-.238-.388-.083-1.242-2.182-2.7-1.83-.022-.218.008-.303.063-.337.147-.085.223-.247.134-.39-.094-.15-.183-.3-.308-.156a.27.27 0 0 1-.31.061c-.541-.268-.617-1.48-1.283-1.553-1.598.095.117-.207-1.254-.833-.32-.168-.427-.427-.717-.436-.18-.003-.33-.147-.317-.327.049-.906.034-.766-.192-.284-.12.257-.498.214-.559-.064-.14-.653.025-.436-.54-.143-.043.021-.088-.015-.082-.061.033-.235-.238-.35-.491-.5-.022-.013-.05-.013-.067.006-.116.134-.046.546.076.772l-.037.012a.273.273 0 0 0-.131.085c-1.05 1.4 1.855.388.662 1.42.272.948.726-.633 1.077-.175.244.385.934.83.324 1.096-.21.177-.15.558.128.454.085-.033-.076.095.134.208.064.033-.384-.089-.146.085-.434.177-.486.25-.672.147-.476.369.8.918 1.428.155.03-.04.095-.024.098.028.021.192.192.363.769.451a.301.301 0 0 1 .256.269c.095 1.028.1-.32.745-.275.183-.906.674.339-.018.385.082.75-1.429.589-1.444-.08-.812-.634.137 1.572.232 1.465.18.421.497.302.403.12-.076-.15.021-.334.18-.391 1.224-.452.168 1.394 1.724 1.608l.113.036c1.306.714.375 1.855.778 1.544.159-.091.296-.161.415-.213-.183.317.14 1.144.387.537.104-.257.364-.03.269-.345.424.06-.488 1.12.507.561.46.162.048.39-.187.672-.177.21 0 .527.272.485 1.059-.174.671.11.406.516-.064.097-.058.213-.028.326.037.14-.161.446.257.403.125-.092.097-.125.045-.18a.302.302 0 0 1 .061-.464c.666-.4.531.33.62 1.074a.3.3 0 0 0 .058.14c.586.852-1.23.492-.037 1.154.238.62.626-.626 1.013-.488-.055.424-.384.646-.68 1.074a.297.297 0 0 1-.537-.129c-.022-.143-.08-.213-.29-.112a.295.295 0 0 0-.1.454c.127.153-.187.345-.477.592-.668.455-.07-.128-.284-.32-1.196.226.61 1.516-2.02 3.149a.3.3 0 0 0-.097.406c.335.58.137 1.5-.235.448.271-.064-.284-.46-.507-.406.095.577.68.354-.345.666.083-.36-.24-.397-.232-.013-.546.537-.186-1.04-.405-.54a.325.325 0 0 1-.07.107c-.15.128-.333.104-.412.198a.338.338 0 0 1-.263.126c.076-.516.964-1.026.232-1.236-.305.024-.57.705-.53 1.12-.193-.077-.352-.083-.373.13-.052.285.015-.112.076.083.375.922-.876.092-.418.592-.174.48-.226-.296-.53-.033-.16.549.393.659.17 1.08-.305.518-.232.042-.14-.244.067-.116-.376-.122-.306-.01-.122.104-.051-.271-.152-.012-.333.177.326.342-.394.363-.174-1.062.54-.82.205-1.733a.328.328 0 0 0-.116-.15c-1.196-.82-1.025-.277-.68.526.106.247-.15.5-.394.384-.147-.067-.232-.095-.202.217-.036.033-.201-.055-.079.076-.458-.333-.683-.616-.467.207-.024 0-.033-.006-.058 0 .067.01.125.028-.021.07-.427-.152-.565.09-.641.501-.955.034 1.517 3.561 2.469 3.622.128.01.232-.092.271-.214.055-.164.195.327.037.48-.342.018-.186.253-.18.451.79.26 1.492 1.083 2.218 1.138.128.01.232.095.266.217.216.824 2.029-1.385 2.276-2.249a.336.336 0 0 1 .26-.232c.079-.018.118-.076.088-.14-.354-.153 1.074-.092.503-.733-.119.01-.189 0 .077-.073.915.138 1.379-1.37 1.547-1.947.009-.024.02-.042.03-.067.64-1.013 2.542-2.02 2.603-3.283a.297.297 0 0 1 .134-.229c.513-.35.308-.616.83-.924.83-.833-.808-1.633 1.13-1.017-.05.87-.916-.811-.306 1.364.534-.076.043-.457.043-.762.753.03.06.055.51.46a.316.316 0 0 1 .1.29c-.08.427.15.491.403.821a.298.298 0 0 0 .317.11c1.41-.397 1.126.15 1.337 1.248 0 .021.003.043.006.064-.022 1.55.418.311.534-.418a.29.29 0 0 1 .225-.241c.754-.143.708.543.315.384-.797-.274-.162 1.16-1.004 1.123a.297.297 0 0 1-.278-.262c-.097-.824-.991.824-.573 1.18.006.431.17.284.317.062.098-.147.305-.196.44-.08.158.132.326.092.542.315.074.073.184.11.281.082.69-.201.342 1.794.147 1.157a.297.297 0 0 0-.464-.16c-.305.224-.034-.243-.742-.551-.418 1.05 2.142 1.031 1.123 1.895-.076-.815-.757-.333-.372-.174.235 2.297.967-1.438 1.346 1.898.168.03.25-.162.296-.376a.297.297 0 0 1 .485-.158c.36.317.638.738.873.897a.29.29 0 0 1 .06.42c-.305.382-.634-.338-.56-.793-.483.089-.355.345-.297.669a.301.301 0 0 1-.08.259c-.222.25.11.14.54.11.282-.018.45.348.227.519-.095.073-.135.222-.028.674.022.091.086.17.174.207.888.37.354.61.01.94-.163.156-.09.43.127.495.678.201.107-.193.657-.293-.373.378.036.824.204.54 1.986-.165.146-.62 1.044-1.007.155 0 .22.03.228.085.037.186.272.263.443.183.65-.293 1.666-.866 2.42-1.306.549-.32.735-1.025.411-1.574l-.012.009Z" fill="#fff"/><path d="M46.695 27.284c-.195.095-.476.48-.19.595.028.012.147.006.23.019.82.113.857-.473-.04-.617v.003ZM23.08 26.35c-.02-.272-.146-.37-.277-.623-.357.116-.006 1.117.278.623Zm3.064-.3c-.317-1.01-1.034-.274-1.33-.835-1.166.708 1.059 1.608 1.33.836Zm-3.554-2.095c-.703.78-.791-.077-.596.756-.238-.003-.537.046-.26.583.09.171.306 0 .437-.198.476.08.199-.37.241-.69.342.156.62-.506.177-.448v-.003Zm25.448 1.108c-.006-.07.439-.409-.058-.39-.101.04-.333.366.058.39Zm-26.074-1.44c.22-.113.632-.351.128-.373-.095-.009-.159.129-.201.254a.306.306 0 0 0-.04-.046c-.131-.12-.037.424-.027.46.18-.054.186-.18.137-.295h.003Zm23.059 2.044c-.323.616 1.382 1.15.464-.052.287-.449.436-.537.47-.614.122.07.323.037.638-.192-.043.03-.028-.866-.489-.921-.155.055-.299.427-.302.732a5.277 5.277 0 0 1-.17-.381c-.44.265.033.58-.684-.107-.366.787.674-.107.073 1.532v.003Z" fill="#fff"/><path d="M46.744 23.992c-.104.278.598.83.153.934-.043.262-.556.357.051.387.086.324.522-.915.242-1.312.183-.095.213-.333-.217-.665-.025.46-.537-.244 0-.08.256-.265-.086-.5-.266-.701-.534.854-.29 1.297.037 1.437Zm1.98-.839c-.491.235-.308.625.067.503.007-.03.092-.299.05-.5a.718.718 0 0 0 .124-.046c0-.021-.207-.238-.207-.238.04.024-.095.226-.03.28h-.004Z" fill="#fff"/><path d="M47.97 23.381c.986-.567-.189-.274-.204-.546.11-.531 1.077-.03.122-.833-1.565.806 1.352 3.854.083 1.38Zm1.08-1.778c.022.323.394.308.248-.263h-.037c.064-.058.165-.161.089-.204-.107-.064-.12.125-.128.207-.14.04.222.26-.171.257v.003Zm.376-.562c-.033.186.32-.034.21-.32-.262 0-.369.415-.21.32Z" fill="#fff"/><path d="M48.587 20.281c-.473.272-.201 1.016-.674 1.19.164 1.724 1.074-.854.674-1.19Zm14.479 18.26c-.232 1.767-.904 2.945-2.219 2.945-1.687 0-2.322-1.928-2.322-4.54 0-2.13.635-3.888 2.322-3.888 1.389 0 2.06 1.202 2.252 2.832h8.846c-.442-5.319-4.314-7.989-11.098-7.989-7.265 0-11.116 3.021-11.116 9.048 0 6.026 3.854 9.7 11.116 9.7 6.567 0 10.412-2.911 11.05-8.104h-8.834l.003-.004ZM8.498 35.697c-.104-1.406.345-3.54 2.34-3.54 1.996 0 2.167 2.167 2.167 3.54H8.498Zm12.004 3.784V38.42c0-6.06-2.438-10.39-9.389-10.39C4.163 28.03 0 31.06 0 37.08c0 6.021 3.857 9.698 11.113 9.698 3.024 0 5.785-.302 8.086-1.025v-4.645c-1.376.724-3.509 1.139-5.883 1.139-2.545 0-4.641-.522-4.784-2.762h11.97v-.003Zm72.659-11.037v-4.131l8.669-2.646v6.78h3.915v5.163h-3.915v5.047c0 1.52.76 2.356 1.892 2.356a6.13 6.13 0 0 0 2.023-.318v5.16c-1.879.55-3.811.925-5.94.925-4.474 0-6.644-2.228-6.644-6.976v-6.19h-3.066V28.45h3.066v-.006Zm25.04 7.253c-.091-1.406.348-3.54 2.337-3.54 1.99 0 2.173 2.167 2.173 3.54h-4.513.003Zm12.01 3.784V38.42c0-6.06-2.441-10.39-9.395-10.39s-11.104 3.027-11.104 9.048c0 6.02 3.857 9.697 11.104 9.697 3.024 0 5.786-.302 8.092-1.025v-4.645c-1.382.724-3.518 1.139-5.886 1.139-2.548 0-4.644-.522-4.781-2.762h11.97ZM85.618 28.444h-8.656v17.927h8.656V28.444Zm-8.656-5.214v3.32h8.656v-5.96l-8.656 2.64Z" fill="#fff"/></svg>