<svg xmlns="http://www.w3.org/2000/svg" xmlns:xlink="http://www.w3.org/1999/xlink" width="40" zoomAndPan="magnify" viewBox="0 0 30 30.000001" height="40" preserveAspectRatio="xMidYMid meet" version="1.0"><defs><clipPath id="41f30a785a"><path d="M 1.003906 0 L 29.308594 0 L 29.308594 29.03125 L 1.003906 29.03125 Z M 1.003906 0 " clip-rule="nonzero"/></clipPath></defs><g clip-path="url(#41f30a785a)"><path fill="#ffffff" d="M 14.914062 -21.773438 C -4.128906 -21.773438 -19.5625 -6.339844 -19.5625 12.703125 C -19.5625 31.742188 -4.128906 47.175781 14.914062 47.175781 C 33.953125 47.175781 49.390625 31.742188 49.390625 12.703125 C 49.390625 -6.339844 33.953125 -21.773438 14.914062 -21.773438 Z M 21.5 33.023438 C 20.445312 33.226562 20.066406 32.578125 20.066406 32.019531 C 20.066406 31.332031 20.09375 29.085938 20.09375 26.292969 C 20.09375 24.34375 19.429688 23.070312 18.683594 22.425781 C 23.316406 21.910156 28.179688 20.144531 28.179688 12.125 C 28.179688 9.847656 27.375 7.980469 26.042969 6.523438 C 26.257812 5.996094 26.96875 3.871094 25.835938 1 C 25.835938 1 24.09375 0.4375 20.121094 3.140625 C 18.460938 2.679688 16.683594 2.449219 14.917969 2.4375 C 13.148438 2.449219 11.371094 2.679688 9.710938 3.140625 C 5.738281 0.441406 3.996094 1 3.996094 1 C 2.863281 3.875 3.578125 5.996094 3.792969 6.523438 C 2.460938 7.980469 1.652344 9.847656 1.652344 12.125 C 1.652344 20.125 6.503906 21.914062 11.121094 22.441406 C 10.527344 22.960938 9.992188 23.882812 9.800781 25.230469 C 8.613281 25.765625 5.605469 26.683594 3.75 23.496094 C 3.75 23.496094 2.652344 21.492188 0.566406 21.34375 C 0.566406 21.34375 -1.460938 21.316406 0.425781 22.613281 C 0.425781 22.613281 1.789062 23.253906 2.734375 25.667969 C 2.734375 25.667969 3.953125 29.730469 9.738281 28.46875 C 9.75 30.207031 9.765625 31.523438 9.765625 32.019531 C 9.765625 32.570312 9.386719 33.214844 8.347656 33.023438 C 0.0820312 30.261719 -5.875 22.441406 -5.875 13.21875 C -5.875 1.6875 3.433594 -7.65625 14.917969 -7.65625 C 26.402344 -7.65625 35.710938 1.691406 35.710938 13.21875 C 35.710938 22.4375 29.757812 30.257812 21.5 33.023438 Z M 21.5 33.023438 " fill-opacity="1" fill-rule="nonzero"/></g></svg>