<svg xmlns="http://www.w3.org/2000/svg" xmlns:xlink="http://www.w3.org/1999/xlink" width="96" zoomAndPan="magnify" viewBox="0 0 72 72" height="96" preserveAspectRatio="xMidYMid meet" version="1.0"><defs><clipPath id="900821a1f7"><path d="M 0.5625 0.5625 L 71.4375 0.5625 L 71.4375 71.4375 L 0.5625 71.4375 Z M 0.5625 0.5625 " clip-rule="nonzero"/></clipPath><clipPath id="d2f62f18a4"><path d="M 36 0.5625 C 16.429688 0.5625 0.5625 16.429688 0.5625 36 C 0.5625 55.570312 16.429688 71.4375 36 71.4375 C 55.570312 71.4375 71.4375 55.570312 71.4375 36 C 71.4375 16.429688 55.570312 0.5625 36 0.5625 " clip-rule="nonzero"/></clipPath><clipPath id="6807c45d67"><path d="M 25 22.617188 L 48.121094 22.617188 L 48.121094 49.617188 L 25 49.617188 Z M 25 22.617188 " clip-rule="nonzero"/></clipPath></defs><g clip-path="url(#900821a1f7)"><g clip-path="url(#d2f62f18a4)"><path fill="#def8cb" d="M 0.5625 0.5625 L 71.4375 0.5625 L 71.4375 71.4375 L 0.5625 71.4375 Z M 0.5625 0.5625 " fill-opacity="1" fill-rule="nonzero"/></g></g><g clip-path="url(#6807c45d67)"><path fill="#000000" d="M 48.132812 27.128906 C 42.734375 27.128906 37.902344 29.511719 34.605469 33.273438 C 34.464844 29.40625 32.984375 25.582031 30.132812 22.628906 L 30.132812 22.632812 C 24.132812 28.839844 24.128906 38.902344 30.132812 45.109375 C 30.132812 46.582031 30.320312 48.089844 30.664062 49.605469 L 32.972656 49.605469 C 32.601562 48.164062 32.382812 46.664062 32.382812 45.109375 L 32.382812 44.953125 C 41.257812 43.84375 48.132812 36.292969 48.132812 27.128906 Z M 45.695312 29.5625 C 44.640625 36.289062 39.304688 41.621094 32.570312 42.671875 C 33.621094 35.945312 38.957031 30.613281 45.695312 29.5625 Z M 30.132812 41.515625 C 27.128906 36.914062 27.128906 30.828125 30.132812 26.222656 C 33.132812 30.824219 33.132812 36.914062 30.132812 41.515625 Z M 30.132812 41.515625 " fill-opacity="1" fill-rule="nonzero"/></g></svg>