<svg xmlns="http://www.w3.org/2000/svg" xmlns:xlink="http://www.w3.org/1999/xlink" width="96" zoomAndPan="magnify" viewBox="0 0 72 72" height="96" preserveAspectRatio="xMidYMid meet" version="1.0"><defs><clipPath id="16465260fb"><path d="M 0.5625 0.5625 L 71.4375 0.5625 L 71.4375 71.4375 L 0.5625 71.4375 Z M 0.5625 0.5625 " clip-rule="nonzero"/></clipPath><clipPath id="c2d932a61b"><path d="M 36 0.5625 C 16.429688 0.5625 0.5625 16.429688 0.5625 36 C 0.5625 55.570312 16.429688 71.4375 36 71.4375 C 55.570312 71.4375 71.4375 55.570312 71.4375 36 C 71.4375 16.429688 55.570312 0.5625 36 0.5625 " clip-rule="nonzero"/></clipPath><clipPath id="3c7fb9fe09"><path d="M 21.601562 22.960938 L 50.101562 22.960938 L 50.101562 49.210938 L 21.601562 49.210938 Z M 21.601562 22.960938 " clip-rule="nonzero"/></clipPath></defs><g clip-path="url(#16465260fb)"><g clip-path="url(#c2d932a61b)"><path fill="#c8beff" d="M 0.5625 0.5625 L 71.4375 0.5625 L 71.4375 71.4375 L 0.5625 71.4375 Z M 0.5625 0.5625 " fill-opacity="1" fill-rule="nonzero"/></g></g><g clip-path="url(#3c7fb9fe09)"><path fill="#000000" d="M 42.636719 25.734375 L 36.527344 25.734375 L 36.527344 23.664062 C 36.527344 23.472656 36.460938 23.308594 36.328125 23.175781 C 36.199219 23.039062 36.039062 22.972656 35.851562 22.972656 C 35.664062 22.972656 35.503906 23.039062 35.371094 23.175781 C 35.238281 23.308594 35.171875 23.472656 35.171875 23.664062 L 35.171875 25.734375 L 29.0625 25.734375 C 28.613281 25.734375 28.183594 25.820312 27.765625 25.996094 C 27.351562 26.171875 26.984375 26.421875 26.667969 26.746094 C 26.347656 27.070312 26.101562 27.441406 25.929688 27.863281 C 25.757812 28.289062 25.671875 28.726562 25.671875 29.183594 L 25.671875 41.609375 C 25.671875 42.066406 25.757812 42.503906 25.929688 42.929688 C 26.101562 43.351562 26.347656 43.722656 26.667969 44.046875 C 26.984375 44.371094 27.351562 44.621094 27.765625 44.796875 C 28.183594 44.96875 28.613281 45.058594 29.0625 45.058594 L 32.773438 45.058594 L 35.285156 48.890625 C 35.347656 48.988281 35.429688 49.0625 35.53125 49.117188 C 35.628906 49.171875 35.738281 49.199219 35.851562 49.199219 C 35.964844 49.199219 36.070312 49.171875 36.171875 49.117188 C 36.269531 49.0625 36.351562 48.988281 36.414062 48.890625 L 38.925781 45.058594 L 42.636719 45.058594 C 43.085938 45.058594 43.519531 44.96875 43.933594 44.796875 C 44.347656 44.621094 44.714844 44.371094 45.035156 44.046875 C 45.351562 43.722656 45.597656 43.351562 45.769531 42.929688 C 45.941406 42.503906 46.027344 42.066406 46.027344 41.609375 L 46.027344 29.183594 C 46.027344 28.726562 45.941406 28.289062 45.769531 27.863281 C 45.597656 27.441406 45.351562 27.070312 45.035156 26.746094 C 44.714844 26.421875 44.347656 26.171875 43.933594 25.996094 C 43.519531 25.820312 43.085938 25.734375 42.636719 25.734375 Z M 44.671875 41.609375 C 44.671875 41.882812 44.621094 42.144531 44.515625 42.398438 C 44.414062 42.652344 44.265625 42.878906 44.074219 43.070312 C 43.882812 43.265625 43.664062 43.414062 43.414062 43.519531 C 43.164062 43.625 42.90625 43.679688 42.636719 43.679688 L 38.5625 43.679688 C 38.324219 43.679688 38.132812 43.78125 38 43.984375 L 35.851562 47.265625 L 33.699219 43.984375 C 33.566406 43.78125 33.378906 43.679688 33.136719 43.679688 L 29.0625 43.679688 C 28.792969 43.679688 28.535156 43.625 28.285156 43.519531 C 28.035156 43.414062 27.816406 43.265625 27.625 43.070312 C 27.433594 42.878906 27.289062 42.652344 27.183594 42.398438 C 27.082031 42.144531 27.027344 41.882812 27.027344 41.609375 L 27.027344 39.539062 L 44.671875 39.539062 Z M 44.671875 38.15625 L 27.027344 38.15625 L 27.027344 29.183594 C 27.027344 28.910156 27.082031 28.644531 27.183594 28.394531 C 27.289062 28.140625 27.433594 27.914062 27.625 27.722656 C 27.816406 27.527344 28.035156 27.378906 28.285156 27.273438 C 28.535156 27.167969 28.792969 27.113281 29.0625 27.113281 L 42.636719 27.113281 C 42.90625 27.113281 43.164062 27.167969 43.414062 27.273438 C 43.664062 27.378906 43.882812 27.527344 44.074219 27.722656 C 44.265625 27.914062 44.414062 28.140625 44.515625 28.394531 C 44.621094 28.644531 44.671875 28.910156 44.671875 29.183594 Z M 33.136719 33.324219 C 33.136719 33.507812 33.101562 33.683594 33.03125 33.855469 C 32.964844 34.023438 32.867188 34.171875 32.738281 34.300781 C 32.609375 34.429688 32.464844 34.53125 32.296875 34.601562 C 32.132812 34.671875 31.957031 34.707031 31.777344 34.707031 C 31.597656 34.707031 31.425781 34.671875 31.257812 34.601562 C 31.09375 34.53125 30.945312 34.429688 30.820312 34.300781 C 30.691406 34.171875 30.59375 34.023438 30.523438 33.855469 C 30.457031 33.683594 30.421875 33.507812 30.421875 33.324219 C 30.421875 33.144531 30.457031 32.964844 30.523438 32.796875 C 30.59375 32.628906 30.691406 32.480469 30.820312 32.351562 C 30.945312 32.21875 31.09375 32.121094 31.257812 32.050781 C 31.425781 31.980469 31.597656 31.945312 31.777344 31.945312 C 31.957031 31.945312 32.132812 31.980469 32.296875 32.050781 C 32.464844 32.121094 32.609375 32.21875 32.738281 32.351562 C 32.867188 32.480469 32.964844 32.628906 33.03125 32.796875 C 33.101562 32.964844 33.136719 33.144531 33.136719 33.324219 Z M 41.277344 33.324219 C 41.277344 33.507812 41.242188 33.683594 41.175781 33.855469 C 41.105469 34.023438 41.007812 34.171875 40.882812 34.300781 C 40.753906 34.429688 40.605469 34.53125 40.441406 34.601562 C 40.273438 34.671875 40.101562 34.707031 39.921875 34.707031 C 39.742188 34.707031 39.566406 34.671875 39.402344 34.601562 C 39.234375 34.53125 39.089844 34.429688 38.960938 34.300781 C 38.835938 34.171875 38.738281 34.023438 38.667969 33.855469 C 38.597656 33.683594 38.5625 33.507812 38.5625 33.324219 C 38.5625 33.144531 38.597656 32.964844 38.667969 32.796875 C 38.738281 32.628906 38.835938 32.480469 38.960938 32.351562 C 39.089844 32.21875 39.234375 32.121094 39.402344 32.050781 C 39.566406 31.980469 39.742188 31.945312 39.921875 31.945312 C 40.101562 31.945312 40.273438 31.980469 40.441406 32.050781 C 40.605469 32.121094 40.753906 32.21875 40.882812 32.351562 C 41.007812 32.480469 41.105469 32.628906 41.175781 32.796875 C 41.242188 32.964844 41.277344 33.144531 41.277344 33.324219 Z M 22.957031 30.566406 L 22.957031 36.085938 C 22.957031 36.277344 22.890625 36.441406 22.757812 36.574219 C 22.625 36.710938 22.464844 36.777344 22.277344 36.777344 C 22.089844 36.777344 21.929688 36.710938 21.796875 36.574219 C 21.667969 36.441406 21.601562 36.277344 21.601562 36.085938 L 21.601562 30.566406 C 21.601562 30.375 21.667969 30.210938 21.796875 30.078125 C 21.929688 29.941406 22.089844 29.875 22.277344 29.875 C 22.464844 29.875 22.625 29.941406 22.757812 30.078125 C 22.890625 30.210938 22.957031 30.375 22.957031 30.566406 Z M 50.101562 30.566406 L 50.101562 36.085938 C 50.101562 36.277344 50.035156 36.441406 49.902344 36.574219 C 49.769531 36.710938 49.609375 36.777344 49.421875 36.777344 C 49.234375 36.777344 49.074219 36.710938 48.941406 36.574219 C 48.808594 36.441406 48.742188 36.277344 48.742188 36.085938 L 48.742188 30.566406 C 48.742188 30.375 48.808594 30.210938 48.941406 30.078125 C 49.074219 29.941406 49.234375 29.875 49.421875 29.875 C 49.609375 29.875 49.769531 29.941406 49.902344 30.078125 C 50.035156 30.210938 50.101562 30.375 50.101562 30.566406 Z M 50.101562 30.566406 " fill-opacity="1" fill-rule="nonzero"/></g></svg>