<svg width="96" height="96" viewBox="0 0 96 96" fill="none" xmlns="http://www.w3.org/2000/svg">
<circle cx="48" cy="48" r="48" fill="#F8CBD6"/>
<path d="M64.25 47.8127V40.2971C64.2523 39.8637 64.139 39.4377 63.9219 39.0627H63.9062C63.6847 38.6748 63.3603 38.3558 62.9688 38.1408L49.2188 30.4064C48.8462 30.1984 48.4267 30.0892 48 30.0892C47.5733 30.0892 47.1538 30.1984 46.7812 30.4064L33.0313 38.1408C32.643 38.3601 32.3196 38.6782 32.0938 39.0627C32.0938 39.0668 32.0921 39.0708 32.0892 39.0737C32.0862 39.0767 32.0823 39.0783 32.0781 39.0783V39.1096C31.8648 39.469 31.7515 39.879 31.75 40.2971V47.8127V55.7033C31.7508 56.1487 31.8698 56.5859 32.0949 56.9702C32.32 57.3546 32.6432 57.6723 33.0313 57.8908L39.9062 61.7502L46.7812 65.6252C47.1274 65.814 47.5123 65.9209 47.9062 65.9377H48.1094C48.4984 65.9208 48.8781 65.8138 49.2188 65.6252L56.0938 61.7502L62.9688 57.8908C63.3568 57.6723 63.68 57.3546 63.9051 56.9702C64.1302 56.5859 64.2492 56.1487 64.25 55.7033V47.8127ZM41.1094 50.9689L34.25 47.0939V41.6877L46.8906 48.7346L46.7656 62.7502L41.75 59.9221V52.0471C41.7493 51.8265 41.6895 51.6102 41.5768 51.4206C41.4641 51.231 41.3027 51.075 41.1094 50.9689ZM40.3438 36.8596L47.3906 40.8127C47.5742 40.9245 47.785 40.9836 48 40.9836C48.215 40.9836 48.4258 40.9245 48.6094 40.8127L55.6562 36.8596L60.4531 39.5627L48.1406 46.5627L35.5625 39.5627L40.3438 36.8596ZM49.3906 48.7346L61.75 41.7033V47.0939L54.8906 50.9689C54.6973 51.075 54.5359 51.231 54.4232 51.4206C54.3105 51.6102 54.2507 51.8265 54.25 52.0471V59.9221L49.2656 62.7346L49.3906 48.7346Z" fill="black"/>
</svg>
