<svg xmlns="http://www.w3.org/2000/svg" xmlns:xlink="http://www.w3.org/1999/xlink" width="48" zoomAndPan="magnify" viewBox="0 0 36 36.000001" height="48" preserveAspectRatio="xMidYMid meet" version="1.0"><defs><clipPath id="e76ddb20c2"><path d="M 2.988281 5.09375 L 32.90625 5.09375 L 32.90625 29.90625 L 2.988281 29.90625 Z M 2.988281 5.09375 " clip-rule="nonzero"/></clipPath></defs><g clip-path="url(#e76ddb20c2)"><path fill="#ffffff" d="M 30.644531 27.320312 L 32.90625 29.511719 L 32.90625 29.582031 L 21.425781 29.582031 L 21.425781 29.511719 L 23.730469 27.320312 C 23.976562 27.117188 24.09375 26.792969 24.039062 26.480469 L 24.039062 12.472656 C 24.039062 11.882812 24.039062 11.082031 24.140625 10.398438 L 16.394531 29.863281 L 16.304688 29.863281 L 8.285156 11.953125 L 7.945312 11.175781 L 7.945312 22.917969 C 7.847656 23.71875 7.976562 24.484375 8.324219 25.210938 L 11.550781 29.511719 L 11.550781 29.582031 L 2.988281 29.582031 L 2.988281 29.511719 L 6.214844 25.203125 C 6.554688 24.492188 6.683594 23.699219 6.59375 22.917969 L 6.59375 9.9375 C 6.644531 9.300781 6.457031 8.664062 6.0625 8.164062 L 3.777344 5.164062 L 3.777344 5.089844 L 11.972656 5.089844 L 18.835938 20.261719 L 24.878906 5.089844 L 32.898438 5.089844 L 32.898438 5.164062 L 30.644531 7.707031 C 30.375 7.90625 30.238281 8.246094 30.296875 8.578125 L 30.296875 26.480469 C 30.230469 26.835938 30.347656 27.113281 30.644531 27.320312 Z M 30.644531 27.320312 " fill-opacity="1" fill-rule="nonzero"/></g></svg>