<svg width="36" height="24" viewBox="0 0 36 24" fill="none" xmlns="http://www.w3.org/2000/svg">
<path d="M13.9568 -1.92707e-06C14.4844 -1.88095e-06 14.964 0.215565 15.3957 0.646702C15.8273 1.07784 16.0432 1.55688 16.0432 2.08383L16.0432 5.96407C16.0432 6.49102 15.8273 6.97006 15.3957 7.4012C14.964 7.83233 14.4844 8.0479 13.9568 8.0479L10.0719 8.0479C9.54436 8.0479 9.06475 8.23952 8.6331 8.62275C8.20144 9.05389 7.9856 9.53293 7.9856 10.0599L7.9856 13.9401C7.9856 14.4671 8.20144 14.9461 8.6331 15.3772C9.06475 15.8084 9.54436 16.024 10.0719 16.024L13.9568 16.024C14.4844 16.024 14.964 16.2156 15.3957 16.5988C15.8273 17.0299 16.0432 17.5329 16.0432 18.1078L16.0432 21.9162C16.0432 22.4431 15.8273 22.9222 15.3957 23.3533C14.964 23.7844 14.4844 24 13.9568 24L2.08632 24C1.55874 24 1.07914 23.7844 0.64748 23.3533C0.215824 22.9222 1.36107e-07 22.4431 1.82175e-07 21.9162L1.21868e-06 10.0599C1.26475e-06 9.53293 0.215825 9.05389 0.647481 8.62275C1.07914 8.23952 1.55874 8.0479 2.08632 8.0479L5.97122 8.0479C6.4988 8.0479 6.97841 7.83233 7.41006 7.4012C7.79375 6.97006 7.9856 6.49102 7.9856 5.96407L7.9856 2.08383C7.9856 1.55688 8.20144 1.07784 8.6331 0.646701C9.06475 0.215564 9.54436 -2.31283e-06 10.0719 -2.2667e-06L13.9568 -1.92707e-06ZM33.9137 -1.82392e-07C34.4892 -1.32077e-07 34.9928 0.215567 35.4245 0.646704C35.8082 1.07784 36 1.55688 36 2.08383L36 5.96407C36 6.49102 35.8082 6.97006 35.4245 7.4012C34.9928 7.83234 34.4892 8.04791 33.9137 8.04791L30.1007 8.04791C29.5252 8.04791 29.0456 8.23952 28.6619 8.62275C28.2302 9.05389 28.0144 9.53293 28.0144 10.0599L28.0144 13.9401C28.0144 14.4671 28.2302 14.9461 28.6619 15.3772C29.0456 15.8084 29.5252 16.024 30.1007 16.024L33.9137 16.024C34.4892 16.024 34.9928 16.2156 35.4245 16.5988C35.8082 17.0299 36 17.5329 36 18.1078L36 21.9162C36 22.4431 35.8082 22.9222 35.4245 23.3533C34.9928 23.7844 34.4892 24 33.9137 24L22.1151 24C21.5396 24 21.0599 23.7844 20.6763 23.3533C20.2446 22.9222 20.0288 22.4431 20.0288 21.9162L20.0288 10.0599C20.0288 9.53293 20.2446 9.05389 20.6763 8.62275C21.0599 8.23952 21.5396 8.0479 22.1151 8.0479L25.9281 8.04791C26.4556 8.04791 26.9353 7.83234 27.3669 7.4012C27.7986 6.97006 28.0144 6.49102 28.0144 5.96407L28.0144 2.08383C28.0144 1.55688 28.2302 1.07784 28.6619 0.646703C29.0456 0.215566 29.5252 -5.66047e-07 30.1007 -5.15732e-07L33.9137 -1.82392e-07Z" fill="#A0CCFF"/>
</svg>
