<svg xmlns="http://www.w3.org/2000/svg" xmlns:xlink="http://www.w3.org/1999/xlink" width="48" zoomAndPan="magnify" viewBox="0 0 36 36.000001" height="48" preserveAspectRatio="xMidYMid meet" version="1.0"><defs><clipPath id="b9fc8620f2"><path d="M 1.363281 2.539062 L 34.929688 2.539062 L 34.929688 32.457031 L 1.363281 32.457031 Z M 1.363281 2.539062 " clip-rule="nonzero"/></clipPath></defs><g clip-path="url(#b9fc8620f2)"><path fill="#ffffff" d="M 26.414062 32.425781 C 25.953125 32.425781 25.558594 32.265625 25.230469 31.941406 L 18.242188 25.019531 L 14.386719 30.109375 C 14.203125 30.359375 13.964844 30.539062 13.675781 30.652344 C 13.386719 30.769531 13.089844 30.800781 12.785156 30.753906 C 12.476562 30.703125 12.203125 30.578125 11.96875 30.378906 C 11.730469 30.179688 11.5625 29.933594 11.464844 29.640625 L 8.347656 20.367188 L 2.285156 17.367188 C 1.988281 17.21875 1.757812 17.003906 1.589844 16.722656 C 1.425781 16.441406 1.347656 16.136719 1.363281 15.808594 C 1.378906 15.484375 1.484375 15.1875 1.675781 14.921875 C 1.867188 14.65625 2.117188 14.464844 2.425781 14.34375 L 32.488281 2.765625 C 32.777344 2.65625 33.078125 2.625 33.382812 2.679688 C 33.691406 2.734375 33.960938 2.863281 34.195312 3.066406 C 34.429688 3.273438 34.59375 3.523438 34.6875 3.816406 C 34.78125 4.113281 34.789062 4.410156 34.710938 4.710938 L 28.03125 31.171875 C 27.941406 31.542969 27.742188 31.84375 27.441406 32.074219 C 27.136719 32.308594 26.796875 32.425781 26.414062 32.425781 Z M 19.265625 21.351562 L 25.507812 27.539062 L 30.683594 7.007812 L 7.148438 16.074219 L 10.464844 17.714844 C 10.875 17.917969 11.152344 18.238281 11.300781 18.671875 L 13.632812 25.601562 L 15.859375 22.65625 L 15.214844 22.019531 C 15.058594 21.863281 14.9375 21.683594 14.851562 21.480469 C 14.769531 21.277344 14.726562 21.066406 14.726562 20.847656 C 14.726562 20.628906 14.769531 20.417969 14.851562 20.214844 C 14.9375 20.011719 15.058594 19.835938 15.214844 19.679688 L 21.894531 13.0625 C 22.050781 12.914062 22.230469 12.796875 22.4375 12.714844 C 22.640625 12.636719 22.851562 12.597656 23.070312 12.597656 C 23.289062 12.601562 23.5 12.644531 23.699219 12.726562 C 23.902344 12.8125 24.082031 12.929688 24.234375 13.082031 C 24.390625 13.234375 24.511719 13.414062 24.59375 13.613281 C 24.679688 13.8125 24.722656 14.019531 24.722656 14.238281 C 24.726562 14.453125 24.6875 14.664062 24.605469 14.867188 C 24.523438 15.066406 24.40625 15.246094 24.253906 15.402344 L 18.753906 20.847656 L 19.226562 21.316406 Z M 19.265625 21.351562 " fill-opacity="1" fill-rule="nonzero"/></g></svg>