<svg xmlns="http://www.w3.org/2000/svg" xmlns:xlink="http://www.w3.org/1999/xlink" width="28" height="28" zoomAndPan="magnify" viewBox="0 0 36 36.000001" preserveAspectRatio="xMidYMid meet" version="1.0"><defs><clipPath id="94d9555025"><path d="M 1.363281 0.875 L 34.929688 0.875 L 34.929688 34.441406 L 1.363281 34.441406 Z M 1.363281 0.875 " clip-rule="nonzero"></path></clipPath></defs><g clip-path="url(#94d9555025)"><path fill="#98A2B3" d="M 18.144531 0.875 C 8.875 0.875 1.363281 8.386719 1.363281 17.660156 C 1.363281 26.929688 8.875 34.441406 18.144531 34.441406 C 27.417969 34.441406 34.929688 26.929688 34.929688 17.660156 C 34.914062 8.386719 27.402344 0.875 18.144531 0.875 Z M 27.183594 11.179688 L 23.914062 26.507812 C 23.753906 27.277344 22.855469 27.613281 22.230469 27.148438 L 14.46875 21.363281 L 23.042969 13.621094 C 23.042969 13.621094 23.625 13.140625 23.464844 12.996094 C 23.289062 12.820312 22.652344 13.199219 22.332031 13.417969 C 21.996094 13.664062 11.824219 20.085938 11.824219 20.085938 L 6.667969 18.488281 C 6.085938 18.3125 6.085938 17.515625 6.925781 17.164062 L 25.875 9.871094 C 26.703125 9.464844 27.359375 10.394531 27.183594 11.179688 Z M 27.183594 11.179688 " fill-opacity="1" fill-rule="nonzero"></path></g></svg>